<?xml version="1.0" encoding="UTF-8"?>
<svg xmlns="http://www.w3.org/2000/svg" viewBox="0 0 569.6 268.7">
  <g fill="#fff">
    <path d="m24 191.8v-109.3h23.4c15.6 0 23.4 7.8 23.4 23.4v62.4c0 15.6-7.8 23.4-23.4 23.4h-23.4zm15.7-93.7v78h7.8c5.2 0 7.8-2.6 7.8-7.8v-62.4c0-5.2-2.6-7.8-7.8-7.8zm44-15.6h39v15.6h-23.4v31.2h19.5v15.6h-19.5v31.2h23.4v15.6h-39zm95-15v53.3l14.8-53.3h16.4l-16.9 62.1 16.9 62.1h-16.4l-14.8-53.3v53.3h-15.6v-124.2zm87.9 36.9v65.5c0 15.6-7.8 23.4-23.4 23.4s-23.4-7.8-23.4-23.4v-65.5c0-15.6 7.8-23.4 23.4-23.4s23.4 7.8 23.4 23.4zm-23.4-7.8c-5.2 0-7.8 2.6-7.8 7.8v65.5c0 5.2 2.6 7.8 7.8 7.8s7.8-2.6 7.8-7.8v-65.5c0-5.2-2.6-7.8-7.8-7.8zm38 95.2v-109.3h15.6l19.5 62.4v-62.4h15.6v109.2h-15.6l-19.5-62.4v62.4h-15.6zm82.1-109.3v109.2h-15.6v-109.2zm15.8 109.3v-109.3h15.6l19.5 62.4v-62.4h15.6v109.2h-15.6l-19.5-62.4v62.4h-15.6zm113.3-87.4v3.9h-15.6v-3.9c0-5.2-2.6-7.8-7.8-7.8s-7.8 2.6-7.8 7.8v65.5c0 5.2 2.6 7.8 7.8 7.8s7.8-2.6 7.8-7.8v-3.9h15.6v3.9c0 15.6-7.8 23.4-23.4 23.4s-23.4-7.8-23.4-23.4v-65.5c0-15.6 7.8-23.4 23.4-23.4s23.4 7.8 23.4 23.4zm26.1-21.9v46.8l14.8-46.8h16.4l-16.9 54.6 16.9 54.6h-16.4l-14.8-46.8v46.8h-15.6v-109.2z"></path>
    <path d="m105.7 243.3h-6.4l-1.4 4h2.2v2.2h-7v-2.2h2.2l4.9-13.6h-2.2v-2h9.1v2h-2.2l5 13.6h2v2.2h-7v-2.2h2.2zm-.6-2.1-2.4-7.5h-.2l-2.5 7.5z"></path>
    <path d="m114.3 247.3v-13.3h-2.6v-2.2h6.1l7.8 13.9v-11.7h-2.5v-2.2h7.3v2.2h-2.6v15.8h-2.8l-8.6-15.2v12.8h2.6v2.2h-7.3v-2.2h2.6zm22.4 0v-13.3h-3.7v4.6h-2.2v-6.8h14.5v6.8h-2.2v-4.6h-3.7v13.4h2.3v2.2h-7.3v-2.2h2.3zm15.6 2.5-4.5-15.8h-2.1v-2.2h6.8v2.2h-2.1l3.4 11.7 3.2-11.7h-2.1v-2.2h8.2v2.2h-2.1l3.3 11.7 3.3-11.7h-2.1v-2.2h6.6v2.2h-2.1l-4.5 15.8h-2.6l-4-14.1-4 14.1zm22.6-2.5v-13.3h-2.3v-2.2h14.8v5.4h-2.2v-3.2h-7.6v5.3h6.6v2.2h-6.6v5.8h7.6v-3.2h2.2v5.5h-14.8v-2.2h2.3zm16.2 0v-13.3h-2.5v-2.2h7.3c1.5 0 2.7.1 3.6.4.9.2 1.6.7 2.2 1.5s.9 1.7.9 2.8c0 2.4-1.2 3.8-3.7 4.5l3.2 6.5h2.2v2.2h-3.9l-4.1-8.3h-2.5v6.1h2.3v2.2h-7.4v-2.2h2.4zm2.7-8.3h2.1c1 0 1.8-.1 2.3-.2s.9-.4 1.2-.8.5-1 .5-1.6-.2-1.1-.5-1.5-.7-.7-1.2-.8-1.2-.2-2.1-.2h-2.3zm13.2 8.3v-13.3h-2.2v-2.2h6.4c1.9 0 3.3.1 4.2.4s1.7.9 2.3 1.8.9 2 .9 3.3c0 1-.2 1.9-.6 2.7s-.9 1.4-1.5 1.8-1.3.6-2.1.8c-.8.1-1.9.2-3.5.2h-1.2v4.6h2.3v2.2h-7.3v-2.2h2.3zm2.7-6.7h1.5c1.8 0 3-.3 3.6-.8.7-.5 1-1.4 1-2.7 0-.8-.2-1.5-.5-2-.4-.5-.8-.9-1.3-1s-1.4-.2-2.7-.2h-1.7v6.7zm10.5 9v-6.5h2.2v1.6c1.1 1.9 2.5 2.9 4.2 2.9.9 0 1.6-.3 2.2-.8s.9-1.2.9-2.1c0-.8-.2-1.5-.7-1.8-.5-.4-1.4-.7-2.8-1.1-1.6-.4-2.8-.8-3.6-1.2s-1.4-.9-1.8-1.6-.7-1.5-.7-2.5c0-1.5.5-2.7 1.5-3.6s2.2-1.3 3.8-1.3c1.4 0 2.8.5 4 1.4v-1.2h2.2v5.4h-2.2v-1.2c-.9-1.4-2.2-2.1-3.8-2.1-1 0-1.7.2-2.2.7-.5.4-.8 1-.8 1.6 0 .5.1.9.4 1.3s.6.6 1 .8 1.2.4 2.4.7c1.6.4 2.7.8 3.4 1.1.7.4 1.3.9 1.8 1.8.5.8.8 1.8.8 2.9 0 1.5-.5 2.8-1.6 3.8s-2.4 1.5-4 1.5-3.1-.6-4.4-1.8v1.5h-2.2zm16.1-2.3v-13.3h-2.3v-2.2h14.8v5.4h-2.2v-3.2h-7.6v5.3h6.6v2.2h-6.6v5.8h7.6v-3.2h2.2v5.5h-14.8v-2.2h2.3zm20.8 2.3v-6.5h2.2v1.6c1.1 1.9 2.5 2.9 4.2 2.9.9 0 1.6-.3 2.2-.8s.9-1.2.9-2.1c0-.8-.2-1.5-.7-1.8-.5-.4-1.4-.7-2.8-1.1-1.6-.4-2.8-.8-3.6-1.2s-1.4-.9-1.8-1.6-.7-1.5-.7-2.5c0-1.5.5-2.7 1.5-3.6s2.2-1.3 3.8-1.3c1.4 0 2.8.5 4 1.4v-1.2h2.2v5.4h-2.2v-1.2c-.9-1.4-2.2-2.1-3.8-2.1-1 0-1.7.2-2.2.7-.5.4-.8 1-.8 1.6 0 .5.1.9.4 1.3s.6.6 1 .8 1.2.4 2.4.7c1.6.4 2.7.8 3.4 1.1.7.4 1.3.9 1.8 1.8.5.8.8 1.8.8 2.9 0 1.5-.5 2.8-1.6 3.8s-2.4 1.5-4 1.5-3.1-.6-4.4-1.8v1.5h-2.2zm19.3-2.3v-13.3h-3.7v4.6h-2.2v-6.8h14.5v6.8h-2.2v-4.6h-3.7v13.4h2.3v2.2h-7.3v-2.2h2.3zm20.7-4h-6.4l-1.4 4h2.2v2.2h-7v-2.2h2.2l4.9-13.6h-2.2v-2h9.1v2h-2.2l5 13.6h2v2.2h-7v-2.2h2.2zm-.7-2.1-2.4-7.5h-.2l-2.5 7.5z"></path>
    <path d="m305.7 247.3v-13.3h-2.4v-2.2h6.9c1.9 0 3.4.1 4.4.3s2 .6 3 1.3 1.7 1.6 2.3 2.9c.6 1.2.9 2.6.9 4.1 0 1.8-.3 3.3-.8 4.6-.6 1.3-1.3 2.3-2.2 2.9s-2 1.1-3.2 1.3c-1.2.3-2.8.4-4.8.4h-6.5v-2.2h2.4zm2.7 0h1.4c1.6 0 2.8-.1 3.7-.3s1.7-.5 2.3-1 1.1-1.2 1.5-2.2.6-2.1.6-3.4c0-1.5-.3-2.9-1-3.9-.6-1.1-1.5-1.8-2.5-2.1s-2.6-.5-4.6-.5h-1.5v13.4zm14.6 2.3v-6.5h2.2v1.6c1.1 1.9 2.5 2.9 4.2 2.9.9 0 1.6-.3 2.2-.8s.9-1.2.9-2.1c0-.8-.2-1.5-.7-1.8-.5-.4-1.4-.7-2.8-1.1-1.6-.4-2.8-.8-3.6-1.2s-1.4-.9-1.8-1.6-.7-1.5-.7-2.5c0-1.5.5-2.7 1.5-3.6s2.2-1.3 3.8-1.3c1.4 0 2.8.5 4 1.4v-1.2h2.2v5.4h-2.2v-1.2c-.9-1.4-2.2-2.1-3.8-2.1-1 0-1.7.2-2.2.7-.5.4-.8 1-.8 1.6 0 .5.1.9.4 1.3s.6.6 1 .8 1.2.4 2.4.7c1.6.4 2.7.8 3.4 1.1.7.4 1.3.9 1.8 1.8.5.8.8 1.8.8 2.9 0 1.5-.5 2.8-1.6 3.8s-2.4 1.5-4 1.5-3.1-.6-4.4-1.8v1.5h-2.2zm15.9-2.3v-13.3h-2.2v-2.2h5.9c1.6 0 2.9.1 3.7.3s1.5.7 2.2 1.5c.6.8.9 1.7.9 2.8 0 .8-.2 1.6-.6 2.2-.4.7-.9 1.2-1.6 1.5 1 .3 1.8.9 2.3 1.7s.8 1.7.8 2.7c0 .9-.2 1.7-.6 2.4s-.9 1.3-1.6 1.7-1.4.7-2.2.8-1.9.2-3.2.2h-6.1v-2.2h2.3zm2.7-8.1h1.7c1.3 0 2.2-.2 2.7-.7.5-.4.8-1.1.8-2 0-1.7-1.2-2.5-3.5-2.5h-1.7zm0 8.1h1c1.3 0 2.3-.1 2.9-.2s1.1-.4 1.5-.9.6-1.1.6-1.9c0-.7-.2-1.3-.6-1.8s-.9-.8-1.4-1c-.6-.2-1.4-.2-2.5-.2h-1.5zm12.6 0v-13.3h-2.5v-2.2h7.3c1.5 0 2.7.1 3.6.4.9.2 1.6.7 2.2 1.5s.9 1.7.9 2.8c0 2.4-1.2 3.8-3.7 4.5l3.2 6.5h2.2v2.2h-3.9l-4.1-8.3h-2.5v6.1h2.3v2.2h-7.4v-2.2h2.4zm2.7-8.3h2.1c1 0 1.8-.1 2.3-.2s.9-.4 1.2-.8.5-1 .5-1.6-.2-1.1-.5-1.5-.7-.7-1.2-.8-1.2-.2-2.1-.2h-2.3zm11.2 1.6c0-2.6.8-4.8 2.5-6.5s3.9-2.6 6.6-2.6 5 .9 6.7 2.6 2.6 3.9 2.6 6.6-.9 4.9-2.6 6.6c-1.8 1.7-4 2.6-6.7 2.6-1.7 0-3.3-.4-4.8-1.2s-2.5-2-3.3-3.5c-.7-1.5-1-3-1-4.6zm2.9 0c0 2 .6 3.6 1.7 4.9s2.7 2 4.5 2 3.4-.7 4.6-2 1.8-3 1.8-4.9-.6-3.5-1.8-4.8-2.7-2-4.6-2c-1.8 0-3.3.6-4.5 1.9s-1.7 3-1.7 4.9zm22.1-6.6v8.9c0 1.4.1 2.3.2 2.9.1.5.5 1 1.1 1.4s1.3.6 2.2.6c1.1 0 1.9-.2 2.4-.5.6-.3.9-.8 1.1-1.3s.3-1.5.3-2.9v-9.1h-2.1v-2.2h7v2.2h-2.2v9.3c0 1.3-.1 2.2-.2 2.7-.1.6-.4 1.2-.9 1.8s-1.1 1.1-2 1.5-1.9.6-3.1.6c-1.4 0-2.5-.2-3.4-.5s-1.6-.8-2-1.4c-.5-.6-.8-1.2-.9-1.9-.2-.7-.2-1.7-.2-3.1v-9h-2.2v-2.2h7v2.2zm19.2 15.8-4.5-15.8h-2.1v-2.2h6.8v2.2h-2.1l3.4 11.7 3.2-11.7h-2.1v-2.2h8.2v2.2h-2.1l3.3 11.7 3.3-11.7h-2.1v-2.2h6.6v2.2h-2.1l-4.5 15.8h-2.6l-4-14.1-4 14.1zm22.6-2.5v-13.3h-2.3v-2.2h14.8v5.4h-2.2v-3.2h-7.6v5.3h6.6v2.2h-6.6v5.8h7.6v-3.2h2.2v5.5h-14.8v-2.2h2.3zm16.2 0v-13.3h-2.5v-2.2h7.3c1.5 0 2.7.1 3.6.4.9.2 1.6.7 2.2 1.5s.9 1.7.9 2.8c0 2.4-1.2 3.8-3.7 4.5l3.2 6.5h2.2v2.2h-3.9l-4.1-8.3h-2.5v6.1h2.3v2.2h-7.4v-2.2h2.4zm2.7-8.3h2.1c1 0 1.8-.1 2.3-.2s.9-.4 1.2-.8.5-1 .5-1.6-.2-1.1-.5-1.5-.7-.7-1.2-.8-1.2-.2-2.1-.2h-2.3zm13.2 8.3v-13.3h-1.9v-2.2h6.5v2.2h-1.9v13.4h1.9v2.2h-6.5v-2.2h1.9zm4.5 7.6v-2.5c.7.2 1.3.3 1.9.3.8 0 1.3-.2 1.5-.6.3-.4.4-1.3.4-2.5v-15.6h-2.3v-2.2h7.3v2.2h-2.3v15.6c0 1.3-.1 2.4-.3 3.1s-.7 1.3-1.5 1.8-1.7.7-2.7.7c-.6 0-1.3-.1-2-.3z"></path>
    <path d="m181.7 31.6c2.1 2 3.2 4.6 3.2 7.5 0 1.4-.3 2.8-.8 4.1-.6 1.3-1.3 2.4-2.3 3.4s-2.1 1.7-3.4 2.3-2.6.8-4.1.8h-19.6v-36.2h19.6c1.4 0 2.7.3 4 .8 1.3.6 2.4 1.3 3.4 2.3s1.7 2.1 2.3 3.4.8 2.6.8 4.1c.1 2.9-.9 5.4-3.1 7.5zm-7.3-12.1h-13.6v9.1h13.6c.6 0 1.2-.1 1.7-.4.6-.2 1-.6 1.5-1 .4-.4.7-.9 1-1.5.2-.6.3-1.1.3-1.8 0-.6-.1-1.2-.3-1.7-.2-.6-.5-1-1-1.5-.4-.4-.9-.7-1.5-1-.5-.1-1.1-.2-1.7-.2zm0 24.1c.6 0 1.2-.1 1.7-.3.6-.2 1-.5 1.5-1 .4-.4.7-.9 1-1.5.2-.6.3-1.1.3-1.7s-.1-1.2-.3-1.7c-.2-.6-.5-1-.9-1.5-.4-.4-.9-.7-1.4-1-.6-.2-1.1-.4-1.8-.4h-13.6v9h13.5zm34.5-30.1h6v36.1h-6zm53.9 0v6h-18.1v9.1h18.1v6h-18.1v9h18.1v6h-24v-36.1zm47.2 36.1-7-12h-10.2v12h-6v-36.1h18.1c3.3 0 6.1 1.2 8.5 3.5 2.4 2.4 3.5 5.2 3.5 8.5 0 2.5-.7 4.8-2.1 6.8s-3.2 3.5-5.3 4.3l7.4 13zm-5.1-30.1h-12.1v12l12.1.1c1.6 0 3-.6 4.2-1.8s1.8-2.6 1.8-4.3c0-1.6-.6-3-1.8-4.2s-2.6-1.8-4.2-1.8zm60-6v6h-18.1v9.1h18.1v6h-18.1v9h18.1v6h-24.1v-36.1zm23.9-.1 24 21.7v-21.7h6v36.1-.1.1l-24-21.5v21.6h-6z"></path>
  </g>
</svg>
